<?xml version="1.0" encoding="UTF-8" standalone="no"?>
<svg
   version="1.1"
   width="2000"
   height="1285"
   viewBox="0 0 2000 1285"
   id="svg65"
   sodipodi:docname="dux-high-resolution-logo-black-transparent.svg"
   inkscape:version="1.1.2 (0a00cf5339, 2022-02-04)"
   xmlns:inkscape="http://www.inkscape.org/namespaces/inkscape"
   xmlns:sodipodi="http://sodipodi.sourceforge.net/DTD/sodipodi-0.dtd"
   xmlns="http://www.w3.org/2000/svg"
   xmlns:svg="http://www.w3.org/2000/svg">
  <defs
     id="defs69" />
  <sodipodi:namedview
     id="namedview67"
     pagecolor="#ffffff"
     bordercolor="#666666"
     borderopacity="1.0"
     inkscape:pageshadow="2"
     inkscape:pageopacity="0.0"
     inkscape:pagecheckerboard="0"
     showgrid="false"
     inkscape:zoom="0.4745"
     inkscape:cx="1000"
     inkscape:cy="641.72813"
     inkscape:window-width="1850"
     inkscape:window-height="1016"
     inkscape:window-x="70"
     inkscape:window-y="27"
     inkscape:window-maximized="1"
     inkscape:current-layer="g12" />
  <g
     transform="translate(0.21333333,1.2140984)"
     id="g63">
    <svg
       viewBox="0 0 375 241"
       data-background-color="#ffffff"
       preserveAspectRatio="xMidYMid meet"
       height="1285"
       width="2000"
       version="1.1"
       id="svg61">
      <g
         id="tight-bounds"
         transform="translate(-0.03976,-0.2277025)">
        <svg
           viewBox="0 0 375.07953 241.45541"
           height="241.4554"
           width="375.07953"
           version="1.1"
           id="svg56">
          <g
             id="g4">
            <svg
               version="1.1"
               id="svg2"
               width="100%"
               height="100%" />
          </g>
          <g
             id="g52">
            <svg
               viewBox="0 0 375.07953 241.45541"
               height="241.4554"
               width="375.07953"
               version="1.1"
               id="svg50">
              <g
                 transform="translate(-10.22024,-5.74456)"
                 id="g12">
                <path
                   d="M 10.22,241.455 V 5.745 H 385.3 v 235.71 H 226.816 v -7.76 H 377.539 V 13.505 H 17.981 v 220.19 h 6.063 v 7.76 z"
                   fill="#000000"
                   fill-rule="nonzero"
                   stroke="none"
                   stroke-width="1"
                   stroke-linecap="butt"
                   stroke-linejoin="miter"
                   stroke-miterlimit="10"
                   stroke-dasharray="none"
                   stroke-dashoffset="0"
                   font-family="none"
                   font-weight="none"
                   font-size="none"
                   text-anchor="none"
                   style="mix-blend-mode:normal"
                   data-fill-palette-color="tertiary"
                   id="path6" />
                <g
                   id="g10"
                   transform="matrix(1,0,0,2.7787088,0,-439.69675)">
                  <path
                     transform="matrix(0.40187,0,0,0.40187,45.89935,242.57846)"
                     d="m 4.25,-33.1 -0.7,-3.3 H 14.4 c 2.3,0 4.383,0.293 6.25,0.88 1.867,0.58 3.343,1.603 4.43,3.07 1.08,1.467 1.62,3.5 1.62,6.1 v 0 c 0,1.333 -0.317,2.617 -0.95,3.85 -0.633,1.233 -1.473,2.307 -2.52,3.22 -1.053,0.92 -2.213,1.58 -3.48,1.98 v 0 L 29.95,0 h -5.4 l -9.4,-16.35 H 8.9 V 0 H 4.25 Z m 10.15,0.15 H 8.9 v 13.2 h 4 c 1.667,0 3.177,-0.193 4.53,-0.58 1.347,-0.38 2.42,-1.07 3.22,-2.07 0.8,-1 1.2,-2.417 1.2,-4.25 v 0 c 0,-1.433 -0.35,-2.61 -1.05,-3.53 -0.7,-0.913 -1.617,-1.603 -2.75,-2.07 -1.133,-0.467 -2.35,-0.7 -3.65,-0.7 z m 27.15,33.6 v 0 c -2.433,0 -4.477,-0.61 -6.13,-1.83 -1.647,-1.213 -2.877,-2.803 -3.69,-4.77 -0.82,-1.967 -1.23,-4.067 -1.23,-6.3 v 0 c 0,-2.233 0.443,-4.36 1.33,-6.38 0.88,-2.013 2.17,-3.653 3.87,-4.92 1.7,-1.267 3.75,-1.9 6.15,-1.9 v 0 c 2.467,0 4.527,0.6 6.18,1.8 1.647,1.2 2.88,2.783 3.7,4.75 0.813,1.967 1.22,4.083 1.22,6.35 v 0 c 0,2.267 -0.433,4.407 -1.3,6.42 -0.867,2.02 -2.15,3.653 -3.85,4.9 -1.7,1.253 -3.783,1.88 -6.25,1.88 z M 41.6,-2.5 v 0 c 1.3,0 2.393,-0.31 3.28,-0.93 0.88,-0.613 1.597,-1.42 2.15,-2.42 0.547,-1 0.937,-2.077 1.17,-3.23 0.233,-1.147 0.35,-2.253 0.35,-3.32 v 0 c 0,-1.1 -0.107,-2.227 -0.32,-3.38 -0.22,-1.147 -0.58,-2.213 -1.08,-3.2 -0.5,-0.98 -1.19,-1.78 -2.07,-2.4 -0.887,-0.613 -1.98,-0.92 -3.28,-0.92 v 0 c -1.3,0 -2.39,0.307 -3.27,0.92 -0.887,0.62 -1.597,1.43 -2.13,2.43 -0.533,1 -0.917,2.073 -1.15,3.22 -0.233,1.153 -0.35,2.263 -0.35,3.33 v 0 c 0,1.033 0.117,2.123 0.35,3.27 0.233,1.153 0.61,2.23 1.13,3.23 0.513,1 1.203,1.817 2.07,2.45 0.867,0.633 1.917,0.95 3.15,0.95 z m 28.8,-22.85 v 0 c 1.733,0 3.25,0.367 4.55,1.1 1.3,0.733 2.377,1.723 3.23,2.97 0.847,1.253 1.487,2.63 1.92,4.13 0.433,1.5 0.65,3.033 0.65,4.6 v 0 c 0,2.233 -0.39,4.357 -1.17,6.37 -0.787,2.02 -1.987,3.663 -3.6,4.93 -1.62,1.267 -3.68,1.9 -6.18,1.9 v 0 c -1.4,0 -2.74,-0.267 -4.02,-0.8 -1.287,-0.533 -2.38,-1.333 -3.28,-2.4 v 0 l -0.9,2.6 h -2.5 c 0.033,-0.567 0.067,-1.143 0.1,-1.73 0.033,-0.58 0.05,-1.153 0.05,-1.72 v 0 -31.8 l -0.7,-2.9 h 4.85 v 13.8 c 0,0.3 -0.007,0.59 -0.02,0.87 -0.02,0.287 -0.047,0.58 -0.08,0.88 v 0 c 1.067,-0.967 2.16,-1.677 3.28,-2.13 1.113,-0.447 2.387,-0.67 3.82,-0.67 z m -1.05,3.55 v 0 c -1.1,0 -2.173,0.257 -3.22,0.77 -1.053,0.52 -1.963,1.18 -2.73,1.98 v 0 9.1 c 0,1.4 0.2,2.667 0.6,3.8 0.4,1.133 1.06,2.033 1.98,2.7 0.913,0.667 2.137,1 3.67,1 v 0 c 1.267,0 2.327,-0.327 3.18,-0.98 0.847,-0.647 1.52,-1.48 2.02,-2.5 0.5,-1.013 0.867,-2.097 1.1,-3.25 0.233,-1.147 0.35,-2.22 0.35,-3.22 v 0 c 0,-1.1 -0.123,-2.2 -0.37,-3.3 -0.253,-1.1 -0.653,-2.11 -1.2,-3.03 -0.553,-0.913 -1.27,-1.653 -2.15,-2.22 -0.887,-0.567 -1.963,-0.85 -3.23,-0.85 z m 20.05,-0.45 h -1.45 c -0.033,-0.1 -0.117,-0.45 -0.25,-1.05 -0.133,-0.6 -0.283,-1.26 -0.45,-1.98 -0.167,-0.713 -0.317,-1.337 -0.45,-1.87 -0.133,-0.533 -0.2,-0.817 -0.2,-0.85 v 0 -8.9 h 4.2 v 8.9 z m 15.15,-3.2 v 0 c 1.133,0 2.26,0.14 3.38,0.42 1.113,0.287 2.137,0.73 3.07,1.33 v 0 l -1.45,3.2 c -0.733,-0.6 -1.55,-1.05 -2.45,-1.35 -0.9,-0.3 -1.783,-0.45 -2.65,-0.45 v 0 c -1.233,0 -2.307,0.283 -3.22,0.85 -0.92,0.567 -1.38,1.417 -1.38,2.55 v 0 c 0,1.233 0.41,2.15 1.23,2.75 0.813,0.6 1.787,1.167 2.92,1.7 v 0 c 0.833,0.4 1.677,0.807 2.53,1.22 0.847,0.42 1.63,0.92 2.35,1.5 0.713,0.587 1.297,1.287 1.75,2.1 0.447,0.82 0.67,1.83 0.67,3.03 v 0 c 0,1.667 -0.407,3.04 -1.22,4.12 -0.82,1.087 -1.887,1.88 -3.2,2.38 -1.32,0.5 -2.747,0.75 -4.28,0.75 v 0 c -1.333,0 -2.667,-0.183 -4,-0.55 -1.333,-0.367 -2.567,-0.883 -3.7,-1.55 v 0 l 1.75,-3.05 c 0.8,0.6 1.7,1.083 2.7,1.45 1,0.367 1.967,0.55 2.9,0.55 v 0 c 1.267,0 2.377,-0.3 3.33,-0.9 0.947,-0.6 1.42,-1.5 1.42,-2.7 v 0 c 0,-0.833 -0.257,-1.527 -0.77,-2.08 -0.52,-0.547 -1.18,-1.037 -1.98,-1.47 -0.8,-0.433 -1.633,-0.85 -2.5,-1.25 v 0 c -1,-0.5 -1.973,-1.043 -2.92,-1.63 -0.953,-0.58 -1.73,-1.32 -2.33,-2.22 -0.6,-0.9 -0.9,-2.05 -0.9,-3.45 v 0 c 0,-1.6 0.427,-2.933 1.28,-4 0.847,-1.067 1.953,-1.877 3.32,-2.43 1.367,-0.547 2.817,-0.82 4.35,-0.82 z m 25.1,-7.65 -0.7,-3.3 h 21.85 v 3.45 h -16.5 v 12.55 h 12.8 v 3.4 h -12.8 v 13.55 h 16.5 V 0 h -21.15 z m 35.6,7.65 v 0 c 1.267,0 2.543,0.207 3.83,0.62 1.28,0.42 2.537,1.063 3.77,1.93 v 0 l -2.25,2.9 c -0.933,-0.767 -1.85,-1.327 -2.75,-1.68 -0.9,-0.347 -1.767,-0.52 -2.6,-0.52 v 0 c -1,0 -1.923,0.233 -2.77,0.7 -0.853,0.467 -1.603,1.123 -2.25,1.97 -0.653,0.853 -1.153,1.88 -1.5,3.08 -0.353,1.2 -0.53,2.533 -0.53,4 v 0 c 0,3.133 0.71,5.533 2.13,7.2 1.413,1.667 3.203,2.5 5.37,2.5 v 0 c 0.967,0 1.91,-0.15 2.83,-0.45 0.913,-0.3 1.87,-0.733 2.87,-1.3 v 0 l 1.35,2.65 c -1.333,0.833 -2.617,1.46 -3.85,1.88 -1.233,0.413 -2.617,0.62 -4.15,0.62 v 0 c -2.133,0 -4.023,-0.543 -5.67,-1.63 -1.653,-1.08 -2.953,-2.62 -3.9,-4.62 -0.953,-2 -1.43,-4.35 -1.43,-7.05 v 0 c 0,-2.6 0.527,-4.86 1.58,-6.78 1.047,-1.913 2.447,-3.397 4.2,-4.45 1.747,-1.047 3.653,-1.57 5.72,-1.57 z M 177.6,-38.1 h 4.8 V 0 h -4.15 v -35.2 z m 22.5,12.65 v 0 c 2,0 3.683,0.407 5.05,1.22 1.367,0.82 2.393,1.953 3.08,3.4 0.68,1.453 1.02,3.147 1.02,5.08 v 0 c 0,0.467 -0.023,0.94 -0.07,1.42 -0.053,0.487 -0.113,0.997 -0.18,1.53 v 0 h -15.8 c 0,3.167 0.7,5.617 2.1,7.35 1.4,1.733 3.267,2.6 5.6,2.6 v 0 c 0.967,0 1.977,-0.15 3.03,-0.45 1.047,-0.3 2.137,-0.75 3.27,-1.35 v 0 l 1.55,2.5 c -1.167,0.933 -2.483,1.633 -3.95,2.1 -1.467,0.467 -2.95,0.7 -4.45,0.7 v 0 c -2.6,0 -4.757,-0.617 -6.47,-1.85 -1.72,-1.233 -2.997,-2.833 -3.83,-4.8 -0.833,-1.967 -1.25,-4.017 -1.25,-6.15 v 0 c 0,-1.667 0.233,-3.283 0.7,-4.85 0.467,-1.567 1.177,-2.993 2.13,-4.28 0.947,-1.28 2.12,-2.297 3.52,-3.05 1.4,-0.747 3.05,-1.12 4.95,-1.12 z m -0.4,3.15 v 0 c -1.133,0 -2.133,0.317 -3,0.95 -0.867,0.633 -1.567,1.44 -2.1,2.42 -0.533,0.987 -0.9,1.997 -1.1,3.03 v 0 h 11.4 c 0.033,-1.4 -0.157,-2.577 -0.57,-3.53 -0.42,-0.947 -1.02,-1.663 -1.8,-2.15 -0.787,-0.48 -1.73,-0.72 -2.83,-0.72 z m 25.3,-3.15 v 0 c 1.267,0 2.543,0.207 3.83,0.62 1.28,0.42 2.537,1.063 3.77,1.93 v 0 l -2.25,2.9 c -0.933,-0.767 -1.85,-1.327 -2.75,-1.68 -0.9,-0.347 -1.767,-0.52 -2.6,-0.52 v 0 c -1,0 -1.923,0.233 -2.77,0.7 -0.853,0.467 -1.603,1.123 -2.25,1.97 -0.653,0.853 -1.153,1.88 -1.5,3.08 -0.353,1.2 -0.53,2.533 -0.53,4 v 0 c 0,3.133 0.71,5.533 2.13,7.2 1.413,1.667 3.203,2.5 5.37,2.5 v 0 c 0.967,0 1.91,-0.15 2.83,-0.45 0.913,-0.3 1.87,-0.733 2.87,-1.3 v 0 l 1.35,2.65 c -1.333,0.833 -2.617,1.46 -3.85,1.88 -1.233,0.413 -2.617,0.62 -4.15,0.62 v 0 c -2.133,0 -4.023,-0.543 -5.67,-1.63 -1.653,-1.08 -2.953,-2.62 -3.9,-4.62 -0.953,-2 -1.43,-4.35 -1.43,-7.05 v 0 c 0,-2.6 0.527,-4.86 1.58,-6.78 1.047,-1.913 2.447,-3.397 4.2,-4.45 1.747,-1.047 3.653,-1.57 5.72,-1.57 z m 16.6,-6.5 h 3.05 c -0.233,1.133 -0.44,2.307 -0.62,3.52 -0.187,1.22 -0.313,2.413 -0.38,3.58 v 0 h 6.5 l -0.85,3.15 h -5.65 v 15.9 c 0,0.633 0.077,1.19 0.23,1.67 0.147,0.487 0.413,0.853 0.8,1.1 0.38,0.253 0.92,0.38 1.62,0.38 v 0 c 0.533,0 1.067,-0.05 1.6,-0.15 0.533,-0.1 1.05,-0.217 1.55,-0.35 v 0 l 0.7,2.8 c -0.833,0.233 -1.623,0.443 -2.37,0.63 -0.753,0.18 -1.613,0.27 -2.58,0.27 v 0 c -2.133,0 -3.617,-0.567 -4.45,-1.7 -0.833,-1.133 -1.25,-2.717 -1.25,-4.75 v 0 -15.8 h -3.7 v -2.5 c 1.333,-0.033 2.383,-0.477 3.15,-1.33 0.767,-0.847 1.35,-1.87 1.75,-3.07 0.4,-1.2 0.7,-2.317 0.9,-3.35 z m 18.8,-1.25 v 0 c 0,0.833 -0.293,1.55 -0.88,2.15 -0.58,0.6 -1.303,0.9 -2.17,0.9 v 0 c -0.833,0 -1.543,-0.3 -2.13,-0.9 -0.58,-0.6 -0.87,-1.317 -0.87,-2.15 v 0 c 0,-0.833 0.29,-1.55 0.87,-2.15 0.587,-0.6 1.297,-0.9 2.13,-0.9 v 0 c 0.833,0 1.55,0.3 2.15,0.9 0.6,0.6 0.9,1.317 0.9,2.15 z m -5.65,8.35 h 4.75 V 0 h -4.15 v -21.9 z m 22.65,-0.6 v 0 c 1.267,0 2.54,0.207 3.82,0.62 1.287,0.42 2.547,1.063 3.78,1.93 v 0 l -2.25,2.9 c -0.933,-0.767 -1.85,-1.327 -2.75,-1.68 -0.9,-0.347 -1.767,-0.52 -2.6,-0.52 v 0 c -1,0 -1.923,0.233 -2.77,0.7 -0.853,0.467 -1.603,1.123 -2.25,1.97 -0.653,0.853 -1.153,1.88 -1.5,3.08 -0.353,1.2 -0.53,2.533 -0.53,4 v 0 c 0,3.133 0.707,5.533 2.12,7.2 1.42,1.667 3.213,2.5 5.38,2.5 v 0 c 0.967,0 1.91,-0.15 2.83,-0.45 0.913,-0.3 1.87,-0.733 2.87,-1.3 v 0 l 1.35,2.65 c -1.333,0.833 -2.617,1.46 -3.85,1.88 -1.233,0.413 -2.617,0.62 -4.15,0.62 v 0 c -2.133,0 -4.027,-0.543 -5.68,-1.63 -1.647,-1.08 -2.947,-2.62 -3.9,-4.62 -0.947,-2 -1.42,-4.35 -1.42,-7.05 v 0 c 0,-2.6 0.523,-4.86 1.57,-6.78 1.053,-1.913 2.457,-3.397 4.21,-4.45 1.747,-1.047 3.653,-1.57 5.72,-1.57 z m 47.05,-2.5 v 0 c 0,1.233 -0.243,2.423 -0.73,3.57 -0.48,1.153 -1.177,2.137 -2.09,2.95 -0.92,0.82 -2.03,1.347 -3.33,1.58 v 0 c 1.667,0.233 3.073,0.807 4.22,1.72 1.153,0.92 2.04,2.063 2.66,3.43 0.613,1.367 0.92,2.867 0.92,4.5 v 0 c 0,2.167 -0.4,3.923 -1.2,5.27 -0.8,1.353 -1.883,2.387 -3.25,3.1 -1.367,0.72 -2.9,1.203 -4.6,1.45 -1.7,0.253 -3.433,0.38 -5.2,0.38 v 0 h -9.9 v -33.1 c 0,-0.033 -0.06,-0.3 -0.18,-0.8 -0.113,-0.5 -0.22,-1.017 -0.32,-1.55 -0.1,-0.533 -0.167,-0.85 -0.2,-0.95 v 0 h 12.15 c 1.433,0 2.807,0.127 4.12,0.38 1.32,0.247 2.503,0.687 3.55,1.32 1.053,0.633 1.88,1.49 2.48,2.57 0.6,1.087 0.9,2.48 0.9,4.18 z m -4.85,0.1 v 0 c 0,-1.333 -0.293,-2.367 -0.88,-3.1 -0.58,-0.733 -1.353,-1.25 -2.32,-1.55 -0.967,-0.3 -2.017,-0.45 -3.15,-0.45 v 0 h -6.65 v 11.6 h 5.35 c 2.333,0 4.19,-0.477 5.57,-1.43 1.387,-0.947 2.08,-2.637 2.08,-5.07 z m 1.55,16.9 v 0 c 0,-1.7 -0.443,-3.06 -1.33,-4.08 -0.88,-1.013 -2.01,-1.747 -3.39,-2.2 -1.387,-0.447 -2.813,-0.67 -4.28,-0.67 v 0 h -5.55 v 14.45 h 5.55 c 1.767,0 3.323,-0.21 4.67,-0.63 1.353,-0.413 2.413,-1.17 3.18,-2.27 0.767,-1.1 1.15,-2.633 1.15,-4.6 z m 10.8,-27.15 h 4.8 V 0 H 332.6 V -35.2 Z M 354.2,0.65 v 0 c -2.433,0 -4.477,-0.61 -6.13,-1.83 -1.647,-1.213 -2.877,-2.803 -3.69,-4.77 -0.82,-1.967 -1.23,-4.067 -1.23,-6.3 v 0 c 0,-2.233 0.44,-4.36 1.32,-6.38 0.887,-2.013 2.18,-3.653 3.88,-4.92 1.7,-1.267 3.75,-1.9 6.15,-1.9 v 0 c 2.467,0 4.527,0.6 6.18,1.8 1.647,1.2 2.88,2.783 3.7,4.75 0.813,1.967 1.22,4.083 1.22,6.35 v 0 c 0,2.267 -0.433,4.407 -1.3,6.42 -0.867,2.02 -2.15,3.653 -3.85,4.9 -1.7,1.253 -3.783,1.88 -6.25,1.88 z m 0.05,-3.15 v 0 c 1.3,0 2.39,-0.31 3.27,-0.93 0.887,-0.613 1.607,-1.42 2.16,-2.42 0.547,-1 0.937,-2.077 1.17,-3.23 0.233,-1.147 0.35,-2.253 0.35,-3.32 v 0 c 0,-1.1 -0.107,-2.227 -0.32,-3.38 -0.22,-1.147 -0.58,-2.213 -1.08,-3.2 -0.5,-0.98 -1.193,-1.78 -2.08,-2.4 -0.88,-0.613 -1.97,-0.92 -3.27,-0.92 v 0 c -1.3,0 -2.39,0.307 -3.27,0.92 -0.887,0.62 -1.597,1.43 -2.13,2.43 -0.533,1 -0.917,2.073 -1.15,3.22 -0.233,1.153 -0.35,2.263 -0.35,3.33 v 0 c 0,1.033 0.117,2.123 0.35,3.27 0.233,1.153 0.607,2.23 1.12,3.23 0.52,1 1.213,1.817 2.08,2.45 0.867,0.633 1.917,0.95 3.15,0.95 z m 24.55,-22.95 v 0 c 0.967,0 1.89,0.117 2.77,0.35 0.887,0.233 1.797,0.35 2.73,0.35 v 0 c 1.267,0 2.55,-0.077 3.85,-0.23 1.3,-0.147 2.667,-0.32 4.1,-0.52 v 0 l -0.9,3.6 h -4 c -0.233,0 -0.473,-0.01 -0.72,-0.03 -0.253,-0.013 -0.497,-0.037 -0.73,-0.07 v 0 c 0.567,0.767 0.993,1.567 1.28,2.4 0.28,0.833 0.42,1.683 0.42,2.55 v 0 c 0,1.667 -0.367,3.167 -1.1,4.5 -0.733,1.333 -1.807,2.373 -3.22,3.12 -1.42,0.753 -3.147,1.13 -5.18,1.13 v 0 c -0.833,0 -1.567,0.217 -2.2,0.65 -0.633,0.433 -0.95,1.1 -0.95,2 v 0 c 0,0.6 0.16,1.023 0.48,1.27 0.313,0.253 0.703,0.397 1.17,0.43 0.467,0.033 0.933,0.05 1.4,0.05 v 0 h 4.85 c 0.867,0 1.76,0.057 2.68,0.17 0.913,0.12 1.753,0.353 2.52,0.7 0.767,0.353 1.393,0.87 1.88,1.55 0.48,0.687 0.72,1.613 0.72,2.78 v 0 c 0,1.833 -0.367,3.4 -1.1,4.7 -0.733,1.3 -1.717,2.36 -2.95,3.18 -1.233,0.813 -2.617,1.403 -4.15,1.77 -1.533,0.367 -3.083,0.55 -4.65,0.55 v 0 c -0.933,0 -1.917,-0.107 -2.95,-0.32 -1.033,-0.22 -2.007,-0.57 -2.92,-1.05 C 371.01,9.643 370.267,9 369.7,8.2 c -0.567,-0.8 -0.85,-1.8 -0.85,-3 v 0 c 0,-1.267 0.393,-2.383 1.18,-3.35 0.78,-0.967 1.687,-1.783 2.72,-2.45 v 0 -0.15 c -0.733,-0.367 -1.307,-0.873 -1.72,-1.52 -0.42,-0.653 -0.63,-1.347 -0.63,-2.08 v 0 c 0,-0.433 0.167,-0.843 0.5,-1.23 0.333,-0.38 0.76,-0.887 1.28,-1.52 0.513,-0.633 1.07,-1.5 1.67,-2.6 v 0 c -1.167,-0.8 -2.1,-1.827 -2.8,-3.08 -0.7,-1.247 -1.05,-2.587 -1.05,-4.02 v 0 c 0,-1.633 0.4,-3.1 1.2,-4.4 0.8,-1.3 1.877,-2.333 3.23,-3.1 1.347,-0.767 2.803,-1.15 4.37,-1.15 z m 0.05,3 v 0 c -1.233,0 -2.29,0.54 -3.17,1.62 -0.887,1.087 -1.33,2.413 -1.33,3.98 v 0 c 0,1.6 0.443,2.94 1.33,4.02 0.88,1.087 1.92,1.63 3.12,1.63 v 0 c 1.367,0 2.457,-0.517 3.27,-1.55 0.82,-1.033 1.23,-2.383 1.23,-4.05 v 0 c 0,-1.6 -0.44,-2.943 -1.32,-4.03 -0.887,-1.08 -1.93,-1.62 -3.13,-1.62 z m 2.85,22.5 h -6 c -0.633,0.467 -1.217,1.11 -1.75,1.93 -0.533,0.813 -0.8,1.603 -0.8,2.37 v 0 c 0,0.8 0.293,1.483 0.88,2.05 0.58,0.567 1.297,0.993 2.15,1.28 0.847,0.28 1.637,0.42 2.37,0.42 v 0 c 1.167,0 2.393,-0.167 3.68,-0.5 1.28,-0.333 2.363,-0.89 3.25,-1.67 0.88,-0.787 1.32,-1.847 1.32,-3.18 v 0 c 0,-0.867 -0.267,-1.49 -0.8,-1.87 -0.533,-0.387 -1.19,-0.62 -1.97,-0.7 -0.787,-0.087 -1.563,-0.13 -2.33,-0.13 z"
                     fill="#000000"
                     fill-rule="nonzero"
                     stroke="none"
                     stroke-width="1"
                     stroke-linecap="butt"
                     stroke-linejoin="miter"
                     stroke-miterlimit="10"
                     stroke-dasharray="none"
                     stroke-dashoffset="0"
                     font-family="none"
                     font-weight="none"
                     font-size="none"
                     text-anchor="none"
                     style="mix-blend-mode:normal"
                     data-fill-palette-color="secondary"
                     id="path8" />
                </g>
              </g>
              <g
                 transform="translate(29.331765,61.263097)"
                 id="g48">
                <svg
                   viewBox="0 0 316.416 118.92921"
                   height="118.92921"
                   width="316.41599"
                   version="1.1"
                   id="svg46">
                  <g
                     id="g44">
                    <svg
                       viewBox="0 0 316.416 118.92921"
                       height="118.92921"
                       width="316.41599"
                       version="1.1"
                       id="svg42">
                      <g
                         id="g40">
                        <svg
                           viewBox="0 0 500.0169 187.93808"
                           height="118.92921"
                           width="316.41599"
                           version="1.1"
                           id="svg38">
                          <g
                             transform="translate(0,25.974076)"
                             id="g27">
                            <svg
                               viewBox="0 0 316.416 135.98993"
                               height="135.98993"
                               width="316.41599"
                               version="1.1"
                               id="svg25">
                              <g
                                 id="textblocktransform">
                                <svg
                                   viewBox="0 0 316.416 135.98993"
                                   height="135.98993"
                                   width="316.41599"
                                   id="textblock"
                                   version="1.1">
                                <g
                                   id="g21">
                                <svg
                                   viewBox="0 0 316.416 135.98993"
                                   height="135.98993"
                                   width="316.41599"
                                   version="1.1"
                                   id="svg19">
                                <g
                                   id="g17">
                                <svg
                                   width="316.41599"
                                   viewBox="2.5 -35 82.59 35.5"
                                   height="135.98993"
                                   data-palette-color="#e363aa"
                                   version="1.1"
                                   id="svg15">
                                <path
                                   d="m 2.5,-2.3 v 0 -30 q 0,-1.25 0.63,-1.97 Q 3.75,-35 4.75,-35 v 0 h 8.35 q 7.95,0 12.08,4 4.12,4 4.12,12.6 v 0 Q 29.3,0 13.6,0 V 0 H 5.05 Q 2.5,0 2.5,-2.3 Z m 10.1,-23.2 h -0.5 v 14.95 q 0,1.05 0.15,1.33 0.15,0.27 0.9,0.27 v 0 q 2.75,0 4.17,-2.05 1.43,-2.05 1.43,-6.82 0,-4.78 -1.47,-6.23 Q 15.8,-25.5 12.6,-25.5 Z M 32.8,-9.95 V -24.7 q 0,-0.55 4.3,-0.55 4.3,0 4.3,0.55 v 0 14.6 q 0,2.5 1.6,2.5 v 0 q 1.2,0 2.7,-1.05 v 0 -16.05 q 0,-0.5 4.25,-0.5 4.25,0 4.25,0.5 v 0 16.4 h 1.3 q 1.7,0 1.7,3.25 v 0 q 0,1.65 -0.7,3.35 v 0 q -1,2.2 -2.7,2.2 v 0 q -3.35,0 -4.95,-2.75 v 0 L 48.8,-2.2 q -3.05,2.7 -6.55,2.7 v 0 q -4.85,0 -7.15,-2.43 -2.3,-2.42 -2.3,-8.02 z m 39.2,-6.5 3.25,-8.4 q 0.2,-0.4 2.5,-0.4 v 0 q 7.5,0 7.3,0.55 v 0 l -6.1,12.65 q 6.14,11.5 6.14,11.5 v 0 q 0,0.3 -3,0.5 -3,0.2 -4.25,0.2 v 0 q -3.14,0 -3.34,-0.65 v 0 l -2.7,-8.35 -3.1,8.7 Q 68.59,0.2 65.84,0.2 63.1,0.2 60.95,0 58.8,-0.2 59,-0.5 v 0 L 64.65,-12 q -5.9,-12.35 -5.9,-12.4 v 0 q 0,-0.3 1.52,-0.55 1.53,-0.25 3.45,-0.25 1.93,0 3.68,0.17 1.75,0.18 1.94,0.48 v 0 z"
                                   opacity="1"
                                   fill="#000000"
                                   class="wordmark-text-0"
                                   data-fill-palette-color="primary"
                                   id="text-0" />
                                </svg>
                                </g>
                                </svg>
                                </g>
                                </svg>
                              </g>
                            </svg>
                          </g>
                          <g
                             transform="translate(348.51996)"
                             id="g36">
                            <svg
                               viewBox="0 0 151.49694 187.93808"
                               height="187.93808"
                               width="151.49693"
                               version="1.1"
                               id="svg34">
                              <g
                                 id="g32">
                                <svg
                                   version="1.1"
                                   x="0"
                                   y="0"
                                   viewBox="11.883437 5.4094809 72.455936 89.884519"
                                   enable-background="new 0 0 100 100"
                                   xml:space="preserve"
                                   height="187.93808"
                                   width="151.49693"
                                   class="icon-icon-0"
                                   data-fill-palette-color="accent"
                                   id="icon-0"><path
                                   fill="#000000"
                                   d="m 28.336,34.614 c -1.439,0 -2.606,1.167 -2.606,2.606 0,1.439 1.167,2.605 2.606,2.605 1.439,0 2.606,-1.167 2.606,-2.605 -0.001,-1.439 -1.167,-2.606 -2.606,-2.606 z M 84.163,72.448 C 83.958,72.136 83.61,71.946 83.237,71.946 h -2.179 c 1.72,-3.893 1.273,-10.563 1.204,-11.446 -0.03,-0.39 -0.265,-0.736 -0.62,-0.906 -0.351,-0.168 -0.771,-0.138 -1.096,0.08 -0.09,0.065 -9.941,6.679 -21.144,5.601 -8.512,-0.807 -10.139,-5.65 -10.452,-7.594 10.406,-2.877 17.587,-12.252 17.587,-23.13 0,-6.808 -2.86,-12.95 -7.426,-17.326 0.471,-0.371 1.54,-0.836 3.703,-0.935 0.609,-0.026 1.079,-0.543 1.051,-1.15 -0.026,-0.607 -0.448,-1.115 -1.15,-1.051 -2.993,0.136 -4.494,0.909 -5.271,1.675 -0.118,-0.094 -0.243,-0.179 -0.363,-0.271 0.718,-2.542 2.726,-7.465 5.832,-7.889 0.603,-0.082 1.025,-0.637 0.943,-1.24 -0.082,-0.605 -0.65,-1.031 -1.24,-0.943 -4.289,0.583 -6.565,6.063 -7.434,8.757 -0.512,-0.319 -1.03,-0.629 -1.567,-0.91 0.62,-1.481 1.318,-4.289 -0.523,-7.326 -0.314,-0.521 -0.993,-0.683 -1.514,-0.372 -0.521,0.317 -0.687,0.995 -0.373,1.514 1.314,2.167 0.847,4.176 0.416,5.25 -2.812,-1.157 -5.884,-1.805 -9.108,-1.805 -13.249,0 -24.025,10.777 -24.025,24.023 0,3.352 0.689,6.558 1.938,9.479 -2.331,0.66 -5.297,1.189 -6.35,0.663 -0.945,-0.469 -1.537,-0.073 -1.751,0.121 -0.349,0.319 -0.67,0.937 -0.222,2.084 0.922,2.368 4.752,6.782 9.836,6.782 h 0.03 l 5.982,-0.022 c 2.082,1.578 4.437,2.84 7.016,3.687 -3.355,3.331 -7.736,10.383 -7.736,16.595 0,2.185 0.7,21.353 24.917,21.353 22.111,0 31.996,-21.575 32.095,-21.793 0.153,-0.345 0.122,-0.739 -0.08,-1.053 z M 21.962,51.473 H 21.94 c -3.409,0 -6.085,-2.707 -7.239,-4.403 2.199,0.203 5.143,-0.557 6.71,-1.029 1.081,1.988 2.426,3.817 4.016,5.419 z m 30.187,41.613 c -21.616,0 -22.712,-15.951 -22.712,-19.148 0,-6.242 5.463,-14.215 8.309,-16.097 0.103,-0.052 0.213,-0.133 0.295,-0.215 0.284,-0.282 0.392,-0.698 0.284,-1.083 -0.11,-0.385 -0.42,-0.68 -0.81,-0.771 C 27.61,53.444 20.692,44.72 20.692,34.55 c 0,-12.03 9.788,-21.818 21.82,-21.818 12.03,0 21.818,9.788 21.818,21.818 0,10.178 -6.925,18.905 -16.838,21.224 -0.491,0.116 -0.827,0.553 -0.835,1.059 -0.002,0.082 0.007,0.161 0.024,0.239 0.082,1.473 1.07,9.31 12.512,10.398 9.295,0.881 17.566,-3.06 20.957,-4.978 0.078,3.591 -0.334,8.324 -1.88,9.745 -0.334,0.308 -0.446,0.788 -0.28,1.212 0.166,0.424 0.573,0.702 1.027,0.702 h 2.409 C 78.771,78.929 69.442,93.086 52.149,93.086 Z M 68.671,69.289 c -0.013,0 -0.904,0.039 -2.257,0.039 -2.543,0 -7.252,-0.144 -10.238,-1.122 -1.897,-0.62 -3.198,-1.458 -4.455,-2.269 -1.682,-1.085 -3.273,-2.112 -5.766,-2.192 l -0.349,-0.004 c -3.622,0 -4.995,1.895 -5.381,2.597 -1.692,1.813 -2.45,6.193 -0.894,10.077 0.98,2.442 3.693,6.541 10.869,6.541 12.781,0 18.554,-9.056 19.57,-12.23 0.11,-0.344 0.043,-0.719 -0.174,-1.006 -0.221,-0.287 -0.551,-0.465 -0.925,-0.431 z m -18.47,11.462 c -5.583,0 -7.881,-2.806 -8.824,-5.157 -1.294,-3.23 -0.558,-6.783 0.517,-7.81 0.101,-0.097 0.196,-0.243 0.256,-0.372 0.026,-0.06 0.691,-1.466 3.456,-1.466 l 0.278,0.004 c 1.884,0.06 3.101,0.846 4.642,1.841 1.311,0.844 2.797,1.804 4.965,2.513 3.111,1.016 7.657,1.229 10.923,1.229 0.213,0 0.415,0 0.605,-0.002 -1.839,3.412 -7,9.22 -16.818,9.22 z"
                                   data-fill-palette-color="accent"
                                   id="path29" /></svg>
                              </g>
                            </svg>
                          </g>
                        </svg>
                      </g>
                    </svg>
                  </g>
                </svg>
              </g>
            </svg>
          </g>
          <defs
             id="defs54" />
        </svg>
        <rect
           width="375.07953"
           height="241.4554"
           fill="none"
           stroke="none"
           visibility="hidden"
           id="rect58"
           x="0"
           y="0" />
      </g>
    </svg>
  </g>
</svg>
