<?xml version="1.0" encoding="UTF-8" standalone="no"?>
<svg
   version="1.1"
   width="151.49693"
   height="187.93808"
   viewBox="0 0 151.49693 187.93808"
   id="svg65"
   sodipodi:docname="dux-icon.svg"
   inkscape:version="1.1.2 (0a00cf5339, 2022-02-04)"
   xmlns:inkscape="http://www.inkscape.org/namespaces/inkscape"
   xmlns:sodipodi="http://sodipodi.sourceforge.net/DTD/sodipodi-0.dtd"
   xmlns="http://www.w3.org/2000/svg"
   xmlns:svg="http://www.w3.org/2000/svg">
  <defs
     id="defs69" />
  <sodipodi:namedview
     id="namedview67"
     pagecolor="#ffffff"
     bordercolor="#666666"
     borderopacity="1.0"
     inkscape:pageshadow="2"
     inkscape:pageopacity="0.0"
     inkscape:pagecheckerboard="0"
     showgrid="true"
     inkscape:zoom="4.2939675"
     inkscape:cx="75.804021"
     inkscape:cy="86.050955"
     inkscape:window-width="1850"
     inkscape:window-height="1016"
     inkscape:window-x="70"
     inkscape:window-y="27"
     inkscape:window-maximized="1"
     inkscape:current-layer="svg65"
     fit-margin-top="0"
     fit-margin-left="0"
     fit-margin-right="0"
     fit-margin-bottom="0">
    <inkscape:grid
       type="xygrid"
       id="grid822" />
  </sodipodi:namedview>
  <svg
     version="1.1"
     x="0"
     y="0"
     viewBox="11.883437 5.4094809 72.455936 89.884519"
     enable-background="new 0 0 100 100"
     xml:space="preserve"
     height="187.93808"
     width="151.49693"
     class="icon-icon-0"
     data-fill-palette-color="accent"
     id="icon-0"
     style="display:inline"
     transform="matrix(2.0908837,0,0,2.0908837,-24.846884,-11.310596)"><path
       fill="#000000"
       d="m 28.336,34.614 c -1.439,0 -2.606,1.167 -2.606,2.606 0,1.439 1.167,2.605 2.606,2.605 1.439,0 2.606,-1.167 2.606,-2.605 -0.001,-1.439 -1.167,-2.606 -2.606,-2.606 z M 84.163,72.448 C 83.958,72.136 83.61,71.946 83.237,71.946 h -2.179 c 1.72,-3.893 1.273,-10.563 1.204,-11.446 -0.03,-0.39 -0.265,-0.736 -0.62,-0.906 -0.351,-0.168 -0.771,-0.138 -1.096,0.08 -0.09,0.065 -9.941,6.679 -21.144,5.601 -8.512,-0.807 -10.139,-5.65 -10.452,-7.594 10.406,-2.877 17.587,-12.252 17.587,-23.13 0,-6.808 -2.86,-12.95 -7.426,-17.326 0.471,-0.371 1.54,-0.836 3.703,-0.935 0.609,-0.026 1.079,-0.543 1.051,-1.15 -0.026,-0.607 -0.448,-1.115 -1.15,-1.051 -2.993,0.136 -4.494,0.909 -5.271,1.675 -0.118,-0.094 -0.243,-0.179 -0.363,-0.271 0.718,-2.542 2.726,-7.465 5.832,-7.889 0.603,-0.082 1.025,-0.637 0.943,-1.24 -0.082,-0.605 -0.65,-1.031 -1.24,-0.943 -4.289,0.583 -6.565,6.063 -7.434,8.757 -0.512,-0.319 -1.03,-0.629 -1.567,-0.91 0.62,-1.481 1.318,-4.289 -0.523,-7.326 -0.314,-0.521 -0.993,-0.683 -1.514,-0.372 -0.521,0.317 -0.687,0.995 -0.373,1.514 1.314,2.167 0.847,4.176 0.416,5.25 -2.812,-1.157 -5.884,-1.805 -9.108,-1.805 -13.249,0 -24.025,10.777 -24.025,24.023 0,3.352 0.689,6.558 1.938,9.479 -2.331,0.66 -5.297,1.189 -6.35,0.663 -0.945,-0.469 -1.537,-0.073 -1.751,0.121 -0.349,0.319 -0.67,0.937 -0.222,2.084 0.922,2.368 4.752,6.782 9.836,6.782 h 0.03 l 5.982,-0.022 c 2.082,1.578 4.437,2.84 7.016,3.687 -3.355,3.331 -7.736,10.383 -7.736,16.595 0,2.185 0.7,21.353 24.917,21.353 22.111,0 31.996,-21.575 32.095,-21.793 0.153,-0.345 0.122,-0.739 -0.08,-1.053 z M 21.962,51.473 H 21.94 c -3.409,0 -6.085,-2.707 -7.239,-4.403 2.199,0.203 5.143,-0.557 6.71,-1.029 1.081,1.988 2.426,3.817 4.016,5.419 z m 30.187,41.613 c -21.616,0 -22.712,-15.951 -22.712,-19.148 0,-6.242 5.463,-14.215 8.309,-16.097 0.103,-0.052 0.213,-0.133 0.295,-0.215 0.284,-0.282 0.392,-0.698 0.284,-1.083 -0.11,-0.385 -0.42,-0.68 -0.81,-0.771 C 27.61,53.444 20.692,44.72 20.692,34.55 c 0,-12.03 9.788,-21.818 21.82,-21.818 12.03,0 21.818,9.788 21.818,21.818 0,10.178 -6.925,18.905 -16.838,21.224 -0.491,0.116 -0.827,0.553 -0.835,1.059 -0.002,0.082 0.007,0.161 0.024,0.239 0.082,1.473 1.07,9.31 12.512,10.398 9.295,0.881 17.566,-3.06 20.957,-4.978 0.078,3.591 -0.334,8.324 -1.88,9.745 -0.334,0.308 -0.446,0.788 -0.28,1.212 0.166,0.424 0.573,0.702 1.027,0.702 h 2.409 C 78.771,78.929 69.442,93.086 52.149,93.086 Z M 68.671,69.289 c -0.013,0 -0.904,0.039 -2.257,0.039 -2.543,0 -7.252,-0.144 -10.238,-1.122 -1.897,-0.62 -3.198,-1.458 -4.455,-2.269 -1.682,-1.085 -3.273,-2.112 -5.766,-2.192 l -0.349,-0.004 c -3.622,0 -4.995,1.895 -5.381,2.597 -1.692,1.813 -2.45,6.193 -0.894,10.077 0.98,2.442 3.693,6.541 10.869,6.541 12.781,0 18.554,-9.056 19.57,-12.23 0.11,-0.344 0.043,-0.719 -0.174,-1.006 -0.221,-0.287 -0.551,-0.465 -0.925,-0.431 z m -18.47,11.462 c -5.583,0 -7.881,-2.806 -8.824,-5.157 -1.294,-3.23 -0.558,-6.783 0.517,-7.81 0.101,-0.097 0.196,-0.243 0.256,-0.372 0.026,-0.06 0.691,-1.466 3.456,-1.466 l 0.278,0.004 c 1.884,0.06 3.101,0.846 4.642,1.841 1.311,0.844 2.797,1.804 4.965,2.513 3.111,1.016 7.657,1.229 10.923,1.229 0.213,0 0.415,0 0.605,-0.002 -1.839,3.412 -7,9.22 -16.818,9.22 z"
       data-fill-palette-color="accent"
       id="path29" /></svg>
</svg>
