<svg xmlns="http://www.w3.org/2000/svg" version="1.1" xmlns:xlink="http://www.w3.org/1999/xlink" xmlns:svgjs="http://svgjs.dev/svgjs" width="2000" height="1285" viewBox="0 0 2000 1285"><g transform="matrix(1,0,0,1,0.21333333333336668,1.2140983921161705)"><svg viewBox="0 0 375 241" data-background-color="#ffffff" preserveAspectRatio="xMidYMid meet" height="1285" width="2000" xmlns="http://www.w3.org/2000/svg" xmlns:xlink="http://www.w3.org/1999/xlink"><g id="tight-bounds" transform="matrix(1,0,0,1,-0.03976000000000113,-0.22770250000000658)"><svg viewBox="0 0 375.07953 241.455405" height="241.455405" width="375.07953"><g><svg></svg></g><g><svg viewBox="0 0 375.07953 241.455405" height="241.455405" width="375.07953"><g transform="matrix(1,0,0,1,-10.22024,-5.744560000000007)"><path d="M10.22 241.455v-235.71h375.08v235.71l-158.484 0 0-7.76 150.723 0v-220.19h-359.558v220.19l6.063 0 0 7.76z" fill="#000000" fill-rule="nonzero" stroke="none" stroke-width="1" stroke-linecap="butt" stroke-linejoin="miter" stroke-miterlimit="10" stroke-dasharray="" stroke-dashoffset="0" font-family="none" font-weight="none" font-size="none" text-anchor="none" style="mix-blend-mode: normal" data-fill-palette-color="tertiary"></path><g><path transform="translate(45.89935,242.57846) scale(0.40187,0.40187)" d="M4.25-33.1l-0.7-3.3h10.85c2.3 0 4.383 0.293 6.25 0.88 1.867 0.58 3.343 1.603 4.43 3.07 1.08 1.467 1.62 3.5 1.62 6.1v0c0 1.333-0.317 2.617-0.95 3.85-0.633 1.233-1.473 2.307-2.52 3.22-1.053 0.92-2.213 1.58-3.48 1.98v0l10.2 17.3h-5.4l-9.4-16.35h-6.25v16.35h-4.65zM14.4-32.95h-5.5v13.2h4c1.667 0 3.177-0.193 4.53-0.58 1.347-0.38 2.42-1.07 3.22-2.07 0.8-1 1.2-2.417 1.2-4.25v0c0-1.433-0.35-2.61-1.05-3.53-0.7-0.913-1.617-1.603-2.75-2.07-1.133-0.467-2.35-0.7-3.65-0.7zM41.55 0.65v0c-2.433 0-4.477-0.61-6.13-1.83-1.647-1.213-2.877-2.803-3.69-4.77-0.82-1.967-1.23-4.067-1.23-6.3v0c0-2.233 0.443-4.36 1.33-6.38 0.88-2.013 2.17-3.653 3.87-4.92 1.7-1.267 3.75-1.9 6.15-1.9v0c2.467 0 4.527 0.6 6.18 1.8 1.647 1.2 2.88 2.783 3.7 4.75 0.813 1.967 1.22 4.083 1.22 6.35v0c0 2.267-0.433 4.407-1.3 6.42-0.867 2.02-2.15 3.653-3.85 4.9-1.7 1.253-3.783 1.88-6.25 1.88zM41.6-2.5v0c1.3 0 2.393-0.31 3.28-0.93 0.88-0.613 1.597-1.42 2.15-2.42 0.547-1 0.937-2.077 1.17-3.23 0.233-1.147 0.35-2.253 0.35-3.32v0c0-1.1-0.107-2.227-0.32-3.38-0.22-1.147-0.58-2.213-1.08-3.2-0.5-0.98-1.19-1.78-2.07-2.4-0.887-0.613-1.98-0.92-3.28-0.92v0c-1.3 0-2.39 0.307-3.27 0.92-0.887 0.62-1.597 1.43-2.13 2.43-0.533 1-0.917 2.073-1.15 3.22-0.233 1.153-0.35 2.263-0.35 3.33v0c0 1.033 0.117 2.123 0.35 3.27 0.233 1.153 0.61 2.23 1.13 3.23 0.513 1 1.203 1.817 2.07 2.45 0.867 0.633 1.917 0.95 3.15 0.95zM70.4-25.35v0c1.733 0 3.25 0.367 4.55 1.1 1.3 0.733 2.377 1.723 3.23 2.97 0.847 1.253 1.487 2.63 1.92 4.13 0.433 1.5 0.65 3.033 0.65 4.6v0c0 2.233-0.39 4.357-1.17 6.37-0.787 2.02-1.987 3.663-3.6 4.93-1.62 1.267-3.68 1.9-6.18 1.9v0c-1.4 0-2.74-0.267-4.02-0.8-1.287-0.533-2.38-1.333-3.28-2.4v0l-0.9 2.6h-2.5c0.033-0.567 0.067-1.143 0.1-1.73 0.033-0.58 0.05-1.153 0.05-1.72v0-31.8l-0.7-2.9h4.85v13.8c0 0.3-0.007 0.59-0.02 0.87-0.02 0.287-0.047 0.58-0.08 0.88v0c1.067-0.967 2.16-1.677 3.28-2.13 1.113-0.447 2.387-0.67 3.82-0.67zM69.35-21.8v0c-1.1 0-2.173 0.257-3.22 0.77-1.053 0.52-1.963 1.18-2.73 1.98v0 9.1c0 1.4 0.2 2.667 0.6 3.8 0.4 1.133 1.06 2.033 1.98 2.7 0.913 0.667 2.137 1 3.67 1v0c1.267 0 2.327-0.327 3.18-0.98 0.847-0.647 1.52-1.48 2.02-2.5 0.5-1.013 0.867-2.097 1.1-3.25 0.233-1.147 0.35-2.22 0.35-3.22v0c0-1.1-0.123-2.2-0.37-3.3-0.253-1.1-0.653-2.11-1.2-3.03-0.553-0.913-1.27-1.653-2.15-2.22-0.887-0.567-1.963-0.85-3.23-0.85zM89.4-22.25h-1.45c-0.033-0.1-0.117-0.45-0.25-1.05-0.133-0.6-0.283-1.26-0.45-1.98-0.167-0.713-0.317-1.337-0.45-1.87-0.133-0.533-0.2-0.817-0.2-0.85v0-8.9h4.2v8.9zM104.55-25.45v0c1.133 0 2.26 0.14 3.38 0.42 1.113 0.287 2.137 0.73 3.07 1.33v0l-1.45 3.2c-0.733-0.6-1.55-1.05-2.45-1.35-0.9-0.3-1.783-0.45-2.65-0.45v0c-1.233 0-2.307 0.283-3.22 0.85-0.92 0.567-1.38 1.417-1.38 2.55v0c0 1.233 0.41 2.15 1.23 2.75 0.813 0.6 1.787 1.167 2.92 1.7v0c0.833 0.4 1.677 0.807 2.53 1.22 0.847 0.42 1.63 0.92 2.35 1.5 0.713 0.587 1.297 1.287 1.75 2.1 0.447 0.82 0.67 1.83 0.67 3.03v0c0 1.667-0.407 3.04-1.22 4.12-0.82 1.087-1.887 1.88-3.2 2.38-1.32 0.5-2.747 0.75-4.28 0.75v0c-1.333 0-2.667-0.183-4-0.55-1.333-0.367-2.567-0.883-3.7-1.55v0l1.75-3.05c0.8 0.6 1.7 1.083 2.7 1.45 1 0.367 1.967 0.55 2.9 0.55v0c1.267 0 2.377-0.3 3.33-0.9 0.947-0.6 1.42-1.5 1.42-2.7v0c0-0.833-0.257-1.527-0.77-2.08-0.52-0.547-1.18-1.037-1.98-1.47-0.8-0.433-1.633-0.85-2.5-1.25v0c-1-0.5-1.973-1.043-2.92-1.63-0.953-0.58-1.73-1.32-2.33-2.22-0.6-0.9-0.9-2.05-0.9-3.45v0c0-1.6 0.427-2.933 1.28-4 0.847-1.067 1.953-1.877 3.32-2.43 1.367-0.547 2.817-0.82 4.35-0.82zM129.65-33.1l-0.7-3.3h21.85v3.45h-16.5v12.55h12.8v3.4h-12.8v13.55h16.5v3.45h-21.15zM165.25-25.45v0c1.267 0 2.543 0.207 3.83 0.62 1.28 0.42 2.537 1.063 3.77 1.93v0l-2.25 2.9c-0.933-0.767-1.85-1.327-2.75-1.68-0.9-0.347-1.767-0.52-2.6-0.52v0c-1 0-1.923 0.233-2.77 0.7-0.853 0.467-1.603 1.123-2.25 1.97-0.653 0.853-1.153 1.88-1.5 3.08-0.353 1.2-0.53 2.533-0.53 4v0c0 3.133 0.71 5.533 2.13 7.2 1.413 1.667 3.203 2.5 5.37 2.5v0c0.967 0 1.91-0.15 2.83-0.45 0.913-0.3 1.87-0.733 2.87-1.3v0l1.35 2.65c-1.333 0.833-2.617 1.46-3.85 1.88-1.233 0.413-2.617 0.62-4.15 0.62v0c-2.133 0-4.023-0.543-5.67-1.63-1.653-1.08-2.953-2.62-3.9-4.62-0.953-2-1.43-4.35-1.43-7.05v0c0-2.6 0.527-4.86 1.58-6.78 1.047-1.913 2.447-3.397 4.2-4.45 1.747-1.047 3.653-1.57 5.72-1.57zM177.6-38.1h4.8v38.1h-4.15v-35.2zM200.1-25.45v0c2 0 3.683 0.407 5.05 1.22 1.367 0.82 2.393 1.953 3.08 3.4 0.68 1.453 1.02 3.147 1.02 5.08v0c0 0.467-0.023 0.94-0.07 1.42-0.053 0.487-0.113 0.997-0.18 1.53v0h-15.8c0 3.167 0.7 5.617 2.1 7.35 1.4 1.733 3.267 2.6 5.6 2.6v0c0.967 0 1.977-0.15 3.03-0.45 1.047-0.3 2.137-0.75 3.27-1.35v0l1.55 2.5c-1.167 0.933-2.483 1.633-3.95 2.1-1.467 0.467-2.95 0.7-4.45 0.7v0c-2.6 0-4.757-0.617-6.47-1.85-1.72-1.233-2.997-2.833-3.83-4.8-0.833-1.967-1.25-4.017-1.25-6.15v0c0-1.667 0.233-3.283 0.7-4.85 0.467-1.567 1.177-2.993 2.13-4.28 0.947-1.28 2.12-2.297 3.52-3.05 1.4-0.747 3.05-1.12 4.95-1.12zM199.7-22.3v0c-1.133 0-2.133 0.317-3 0.95-0.867 0.633-1.567 1.44-2.1 2.42-0.533 0.987-0.9 1.997-1.1 3.03v0h11.4c0.033-1.4-0.157-2.577-0.57-3.53-0.42-0.947-1.02-1.663-1.8-2.15-0.787-0.48-1.73-0.72-2.83-0.72zM225-25.45v0c1.267 0 2.543 0.207 3.83 0.62 1.28 0.42 2.537 1.063 3.77 1.93v0l-2.25 2.9c-0.933-0.767-1.85-1.327-2.75-1.68-0.9-0.347-1.767-0.52-2.6-0.52v0c-1 0-1.923 0.233-2.77 0.7-0.853 0.467-1.603 1.123-2.25 1.97-0.653 0.853-1.153 1.88-1.5 3.08-0.353 1.2-0.53 2.533-0.53 4v0c0 3.133 0.71 5.533 2.13 7.2 1.413 1.667 3.203 2.5 5.37 2.5v0c0.967 0 1.91-0.15 2.83-0.45 0.913-0.3 1.87-0.733 2.87-1.3v0l1.35 2.65c-1.333 0.833-2.617 1.46-3.85 1.88-1.233 0.413-2.617 0.62-4.15 0.62v0c-2.133 0-4.023-0.543-5.67-1.63-1.653-1.08-2.953-2.62-3.9-4.62-0.953-2-1.43-4.35-1.43-7.05v0c0-2.6 0.527-4.86 1.58-6.78 1.047-1.913 2.447-3.397 4.2-4.45 1.747-1.047 3.653-1.57 5.72-1.57zM241.6-31.95h3.05c-0.233 1.133-0.44 2.307-0.62 3.52-0.187 1.22-0.313 2.413-0.38 3.58v0h6.5l-0.85 3.15h-5.65v15.9c0 0.633 0.077 1.19 0.23 1.67 0.147 0.487 0.413 0.853 0.8 1.1 0.38 0.253 0.92 0.38 1.62 0.38v0c0.533 0 1.067-0.05 1.6-0.15 0.533-0.1 1.05-0.217 1.55-0.35v0l0.7 2.8c-0.833 0.233-1.623 0.443-2.37 0.63-0.753 0.18-1.613 0.27-2.58 0.27v0c-2.133 0-3.617-0.567-4.45-1.7-0.833-1.133-1.25-2.717-1.25-4.75v0-15.8h-3.7v-2.5c1.333-0.033 2.383-0.477 3.15-1.33 0.767-0.847 1.35-1.87 1.75-3.07 0.4-1.2 0.7-2.317 0.9-3.35zM260.4-33.2v0c0 0.833-0.293 1.55-0.88 2.15-0.58 0.6-1.303 0.9-2.17 0.9v0c-0.833 0-1.543-0.3-2.13-0.9-0.58-0.6-0.87-1.317-0.87-2.15v0c0-0.833 0.29-1.55 0.87-2.15 0.587-0.6 1.297-0.9 2.13-0.9v0c0.833 0 1.55 0.3 2.15 0.9 0.6 0.6 0.9 1.317 0.9 2.15zM254.75-24.85h4.75v24.85h-4.15v-21.9zM277.4-25.45v0c1.267 0 2.54 0.207 3.82 0.62 1.287 0.42 2.547 1.063 3.78 1.93v0l-2.25 2.9c-0.933-0.767-1.85-1.327-2.75-1.68-0.9-0.347-1.767-0.52-2.6-0.52v0c-1 0-1.923 0.233-2.77 0.7-0.853 0.467-1.603 1.123-2.25 1.97-0.653 0.853-1.153 1.88-1.5 3.08-0.353 1.2-0.53 2.533-0.53 4v0c0 3.133 0.707 5.533 2.12 7.2 1.42 1.667 3.213 2.5 5.38 2.5v0c0.967 0 1.91-0.15 2.83-0.45 0.913-0.3 1.87-0.733 2.87-1.3v0l1.35 2.65c-1.333 0.833-2.617 1.46-3.85 1.88-1.233 0.413-2.617 0.62-4.15 0.62v0c-2.133 0-4.027-0.543-5.68-1.63-1.647-1.08-2.947-2.62-3.9-4.62-0.947-2-1.42-4.35-1.42-7.05v0c0-2.6 0.523-4.86 1.57-6.78 1.053-1.913 2.457-3.397 4.21-4.45 1.747-1.047 3.653-1.57 5.72-1.57zM324.45-27.95v0c0 1.233-0.243 2.423-0.73 3.57-0.48 1.153-1.177 2.137-2.09 2.95-0.92 0.82-2.03 1.347-3.33 1.58v0c1.667 0.233 3.073 0.807 4.22 1.72 1.153 0.92 2.04 2.063 2.66 3.43 0.613 1.367 0.92 2.867 0.92 4.5v0c0 2.167-0.4 3.923-1.2 5.27-0.8 1.353-1.883 2.387-3.25 3.1-1.367 0.72-2.9 1.203-4.6 1.45-1.7 0.253-3.433 0.38-5.2 0.38v0h-9.9v-33.1c0-0.033-0.06-0.3-0.18-0.8-0.113-0.5-0.22-1.017-0.32-1.55-0.1-0.533-0.167-0.85-0.2-0.95v0h12.15c1.433 0 2.807 0.127 4.12 0.38 1.32 0.247 2.503 0.687 3.55 1.32 1.053 0.633 1.88 1.49 2.48 2.57 0.6 1.087 0.9 2.48 0.9 4.18zM319.6-27.85v0c0-1.333-0.293-2.367-0.88-3.1-0.58-0.733-1.353-1.25-2.32-1.55-0.967-0.3-2.017-0.45-3.15-0.45v0h-6.65v11.6h5.35c2.333 0 4.19-0.477 5.57-1.43 1.387-0.947 2.08-2.637 2.08-5.07zM321.15-10.95v0c0-1.7-0.443-3.06-1.33-4.08-0.88-1.013-2.01-1.747-3.39-2.2-1.387-0.447-2.813-0.67-4.28-0.67v0h-5.55v14.45h5.55c1.767 0 3.323-0.21 4.67-0.63 1.353-0.413 2.413-1.17 3.18-2.27 0.767-1.1 1.15-2.633 1.15-4.6zM331.95-38.1h4.8v38.1h-4.15v-35.2zM354.2 0.65v0c-2.433 0-4.477-0.61-6.13-1.83-1.647-1.213-2.877-2.803-3.69-4.77-0.82-1.967-1.23-4.067-1.23-6.3v0c0-2.233 0.44-4.36 1.32-6.38 0.887-2.013 2.18-3.653 3.88-4.92 1.7-1.267 3.75-1.9 6.15-1.9v0c2.467 0 4.527 0.6 6.18 1.8 1.647 1.2 2.88 2.783 3.7 4.75 0.813 1.967 1.22 4.083 1.22 6.35v0c0 2.267-0.433 4.407-1.3 6.42-0.867 2.02-2.15 3.653-3.85 4.9-1.7 1.253-3.783 1.88-6.25 1.88zM354.25-2.5v0c1.3 0 2.39-0.31 3.27-0.93 0.887-0.613 1.607-1.42 2.16-2.42 0.547-1 0.937-2.077 1.17-3.23 0.233-1.147 0.35-2.253 0.35-3.32v0c0-1.1-0.107-2.227-0.32-3.38-0.22-1.147-0.58-2.213-1.08-3.2-0.5-0.98-1.193-1.78-2.08-2.4-0.88-0.613-1.97-0.92-3.27-0.92v0c-1.3 0-2.39 0.307-3.27 0.92-0.887 0.62-1.597 1.43-2.13 2.43-0.533 1-0.917 2.073-1.15 3.22-0.233 1.153-0.35 2.263-0.35 3.33v0c0 1.033 0.117 2.123 0.35 3.27 0.233 1.153 0.607 2.23 1.12 3.23 0.52 1 1.213 1.817 2.08 2.45 0.867 0.633 1.917 0.95 3.15 0.95zM378.8-25.45v0c0.967 0 1.89 0.117 2.77 0.35 0.887 0.233 1.797 0.35 2.73 0.35v0c1.267 0 2.55-0.077 3.85-0.23 1.3-0.147 2.667-0.32 4.1-0.52v0l-0.9 3.6h-4c-0.233 0-0.473-0.01-0.72-0.03-0.253-0.013-0.497-0.037-0.73-0.07v0c0.567 0.767 0.993 1.567 1.28 2.4 0.28 0.833 0.42 1.683 0.42 2.55v0c0 1.667-0.367 3.167-1.1 4.5-0.733 1.333-1.807 2.373-3.22 3.12-1.42 0.753-3.147 1.13-5.18 1.13v0c-0.833 0-1.567 0.217-2.2 0.65-0.633 0.433-0.95 1.1-0.95 2v0c0 0.6 0.16 1.023 0.48 1.27 0.313 0.253 0.703 0.397 1.17 0.43 0.467 0.033 0.933 0.05 1.4 0.05v0h4.85c0.867 0 1.76 0.057 2.68 0.17 0.913 0.12 1.753 0.353 2.52 0.7 0.767 0.353 1.393 0.87 1.88 1.55 0.48 0.687 0.72 1.613 0.72 2.78v0c0 1.833-0.367 3.4-1.1 4.7-0.733 1.3-1.717 2.36-2.95 3.18-1.233 0.813-2.617 1.403-4.15 1.77-1.533 0.367-3.083 0.55-4.65 0.55v0c-0.933 0-1.917-0.107-2.95-0.32-1.033-0.22-2.007-0.57-2.92-1.05-0.92-0.487-1.663-1.13-2.23-1.93-0.567-0.8-0.85-1.8-0.85-3v0c0-1.267 0.393-2.383 1.18-3.35 0.78-0.967 1.687-1.783 2.72-2.45v0-0.15c-0.733-0.367-1.307-0.873-1.72-1.52-0.42-0.653-0.63-1.347-0.63-2.08v0c0-0.433 0.167-0.843 0.5-1.23 0.333-0.38 0.76-0.887 1.28-1.52 0.513-0.633 1.07-1.5 1.67-2.6v0c-1.167-0.8-2.1-1.827-2.8-3.08-0.7-1.247-1.05-2.587-1.05-4.02v0c0-1.633 0.4-3.1 1.2-4.4 0.8-1.3 1.877-2.333 3.23-3.1 1.347-0.767 2.803-1.15 4.37-1.15zM378.85-22.45v0c-1.233 0-2.29 0.54-3.17 1.62-0.887 1.087-1.33 2.413-1.33 3.98v0c0 1.6 0.443 2.94 1.33 4.02 0.88 1.087 1.92 1.63 3.12 1.63v0c1.367 0 2.457-0.517 3.27-1.55 0.82-1.033 1.23-2.383 1.23-4.05v0c0-1.6-0.44-2.943-1.32-4.03-0.887-1.08-1.93-1.62-3.13-1.62zM381.7 0.05h-6c-0.633 0.467-1.217 1.11-1.75 1.93-0.533 0.813-0.8 1.603-0.8 2.37v0c0 0.8 0.293 1.483 0.88 2.05 0.58 0.567 1.297 0.993 2.15 1.28 0.847 0.28 1.637 0.42 2.37 0.42v0c1.167 0 2.393-0.167 3.68-0.5 1.28-0.333 2.363-0.89 3.25-1.67 0.88-0.787 1.32-1.847 1.32-3.18v0c0-0.867-0.267-1.49-0.8-1.87-0.533-0.387-1.19-0.62-1.97-0.7-0.787-0.087-1.563-0.13-2.33-0.13z" fill="#000000" fill-rule="nonzero" stroke="none" stroke-width="1" stroke-linecap="butt" stroke-linejoin="miter" stroke-miterlimit="10" stroke-dasharray="" stroke-dashoffset="0" font-family="none" font-weight="none" font-size="none" text-anchor="none" style="mix-blend-mode: normal" data-fill-palette-color="secondary"></path></g></g><g transform="matrix(1,0,0,1,29.33176499999999,61.263096565290944)"><svg viewBox="0 0 316.416 118.92921186941813" height="118.92921186941813" width="316.416"><g><svg viewBox="0 0 316.416 118.92921186941813" height="118.92921186941813" width="316.416"><g><svg viewBox="0 0 500.0168963029089 187.93807961259077" height="118.92921186941813" width="316.416"><g transform="matrix(1,0,0,1,0,25.974076125907985)"><svg viewBox="0 0 316.416 135.9899273607748" height="135.9899273607748" width="316.416"><g id="textblocktransform"><svg viewBox="0 0 316.416 135.9899273607748" height="135.9899273607748" width="316.416" id="textblock"><g><svg viewBox="0 0 316.416 135.9899273607748" height="135.9899273607748" width="316.416"><g transform="matrix(1,0,0,1,0,0)"><svg width="316.416" viewBox="2.5 -35 82.59 35.5" height="135.9899273607748" data-palette-color="#e363aa"><path d="M2.5-2.3L2.5-2.3 2.5-32.3Q2.5-33.55 3.13-34.27 3.75-35 4.75-35L4.75-35 13.1-35Q21.05-35 25.18-31 29.3-27 29.3-18.4L29.3-18.4Q29.3 0 13.6 0L13.6 0 5.05 0Q2.5 0 2.5-2.3ZM12.6-25.5L12.1-25.5 12.1-10.55Q12.1-9.5 12.25-9.22 12.4-8.95 13.15-8.95L13.15-8.95Q15.9-8.95 17.32-11 18.75-13.05 18.75-17.82 18.75-22.6 17.28-24.05 15.8-25.5 12.6-25.5L12.6-25.5ZM32.8-9.95L32.8-24.7Q32.8-25.25 37.1-25.25 41.4-25.25 41.4-24.7L41.4-24.7 41.4-10.1Q41.4-7.6 43-7.6L43-7.6Q44.2-7.6 45.7-8.65L45.7-8.65 45.7-24.7Q45.7-25.2 49.95-25.2 54.2-25.2 54.2-24.7L54.2-24.7 54.2-8.3 55.5-8.3Q57.2-8.3 57.2-5.05L57.2-5.05Q57.2-3.4 56.5-1.7L56.5-1.7Q55.5 0.5 53.8 0.5L53.8 0.5Q50.45 0.5 48.85-2.25L48.85-2.25 48.8-2.2Q45.75 0.5 42.25 0.5L42.25 0.5Q37.4 0.5 35.1-1.93 32.8-4.35 32.8-9.95L32.8-9.95ZM72-16.45L75.25-24.85Q75.45-25.25 77.75-25.25L77.75-25.25Q85.25-25.25 85.05-24.7L85.05-24.7 78.95-12.05Q85.09-0.55 85.09-0.55L85.09-0.55Q85.09-0.25 82.09-0.05 79.09 0.15 77.84 0.15L77.84 0.15Q74.7 0.15 74.5-0.5L74.5-0.5 71.8-8.85 68.7-0.15Q68.59 0.2 65.84 0.2 63.1 0.2 60.95 0 58.8-0.2 59-0.5L59-0.5 64.65-12Q58.75-24.35 58.75-24.4L58.75-24.4Q58.75-24.7 60.27-24.95 61.8-25.2 63.72-25.2 65.65-25.2 67.4-25.03 69.15-24.85 69.34-24.55L69.34-24.55 72-16.45Z" opacity="1" transform="matrix(1,0,0,1,0,0)" fill="#000000" class="wordmark-text-0" data-fill-palette-color="primary" id="text-0"></path></svg></g></svg></g></svg></g></svg></g><g transform="matrix(1,0,0,1,348.51995809162224,0)"><svg viewBox="0 0 151.49693821128662 187.93807961259077" height="187.93807961259077" width="151.49693821128662"><g><svg xmlns="http://www.w3.org/2000/svg" xmlns:xlink="http://www.w3.org/1999/xlink" version="1.1" x="0" y="0" viewBox="11.883436796382643 5.409480928622599 72.45593580597277 89.88451907137741" enable-background="new 0 0 100 100" xml:space="preserve" height="187.93807961259077" width="151.49693821128662" class="icon-icon-0" data-fill-palette-color="accent" id="icon-0"><path fill="#000000" d="M28.336 34.614c-1.439 0-2.606 1.167-2.606 2.606 0 1.439 1.167 2.605 2.606 2.605 1.439 0 2.606-1.167 2.606-2.605C30.941 35.781 29.775 34.614 28.336 34.614zM84.163 72.448c-0.205-0.312-0.553-0.502-0.926-0.502h-2.179c1.72-3.893 1.273-10.563 1.204-11.446-0.03-0.39-0.265-0.736-0.62-0.906-0.351-0.168-0.771-0.138-1.096 0.08-0.09 0.065-9.941 6.679-21.144 5.601-8.512-0.807-10.139-5.65-10.452-7.594 10.406-2.877 17.587-12.252 17.587-23.13 0-6.808-2.86-12.95-7.426-17.326 0.471-0.371 1.54-0.836 3.703-0.935 0.609-0.026 1.079-0.543 1.051-1.15-0.026-0.607-0.448-1.115-1.15-1.051-2.993 0.136-4.494 0.909-5.271 1.675-0.118-0.094-0.243-0.179-0.363-0.271 0.718-2.542 2.726-7.465 5.832-7.889 0.603-0.082 1.025-0.637 0.943-1.24-0.082-0.605-0.65-1.031-1.24-0.943-4.289 0.583-6.565 6.063-7.434 8.757-0.512-0.319-1.03-0.629-1.567-0.91 0.62-1.481 1.318-4.289-0.523-7.326-0.314-0.521-0.993-0.683-1.514-0.372-0.521 0.317-0.687 0.995-0.373 1.514 1.314 2.167 0.847 4.176 0.416 5.25-2.812-1.157-5.884-1.805-9.108-1.805-13.249 0-24.025 10.777-24.025 24.023 0 3.352 0.689 6.558 1.938 9.479-2.331 0.66-5.297 1.189-6.35 0.663-0.945-0.469-1.537-0.073-1.751 0.121-0.349 0.319-0.67 0.937-0.222 2.084 0.922 2.368 4.752 6.782 9.836 6.782h0.03l5.982-0.022c2.082 1.578 4.437 2.84 7.016 3.687-3.355 3.331-7.736 10.383-7.736 16.595 0 2.185 0.7 21.353 24.917 21.353 22.111 0 31.996-21.575 32.095-21.793C84.396 73.156 84.365 72.762 84.163 72.448zM21.962 51.473H21.94c-3.409 0-6.085-2.707-7.239-4.403 2.199 0.203 5.143-0.557 6.71-1.029 1.081 1.988 2.426 3.817 4.016 5.419L21.962 51.473zM52.149 93.086c-21.616 0-22.712-15.951-22.712-19.148 0-6.242 5.463-14.215 8.309-16.097 0.103-0.052 0.213-0.133 0.295-0.215 0.284-0.282 0.392-0.698 0.284-1.083-0.11-0.385-0.42-0.68-0.81-0.771-9.905-2.328-16.823-11.052-16.823-21.222 0-12.03 9.788-21.818 21.82-21.818 12.03 0 21.818 9.788 21.818 21.818 0 10.178-6.925 18.905-16.838 21.224-0.491 0.116-0.827 0.553-0.835 1.059-0.002 0.082 0.007 0.161 0.024 0.239 0.082 1.473 1.07 9.31 12.512 10.398 9.295 0.881 17.566-3.06 20.957-4.978 0.078 3.591-0.334 8.324-1.88 9.745-0.334 0.308-0.446 0.788-0.28 1.212 0.166 0.424 0.573 0.702 1.027 0.702h2.409C78.771 78.929 69.442 93.086 52.149 93.086zM68.671 69.289c-0.013 0-0.904 0.039-2.257 0.039-2.543 0-7.252-0.144-10.238-1.122-1.897-0.62-3.198-1.458-4.455-2.269-1.682-1.085-3.273-2.112-5.766-2.192l-0.349-0.004c-3.622 0-4.995 1.895-5.381 2.597-1.692 1.813-2.45 6.193-0.894 10.077 0.98 2.442 3.693 6.541 10.869 6.541 12.781 0 18.554-9.056 19.57-12.23 0.11-0.344 0.043-0.719-0.174-1.006C69.375 69.433 69.045 69.255 68.671 69.289zM50.201 80.751c-5.583 0-7.881-2.806-8.824-5.157-1.294-3.23-0.558-6.783 0.517-7.81 0.101-0.097 0.196-0.243 0.256-0.372 0.026-0.06 0.691-1.466 3.456-1.466l0.278 0.004c1.884 0.06 3.101 0.846 4.642 1.841 1.311 0.844 2.797 1.804 4.965 2.513 3.111 1.016 7.657 1.229 10.923 1.229 0.213 0 0.415 0 0.605-0.002C65.18 74.943 60.019 80.751 50.201 80.751z" data-fill-palette-color="accent"></path></svg></g></svg></g></svg></g></svg></g></svg></g></svg></g><defs></defs></svg><rect width="375.07953" height="241.455405" fill="none" stroke="none" visibility="hidden"></rect></g></svg></g></svg>